<svg width="28" height="28" viewBox="0 0 28 28" fill="none" xmlns="http://www.w3.org/2000/svg">
<g filter="url(#filter0_d_1381_2227)">
<rect width="20" height="20" transform="translate(4)" fill="black" fill-opacity="0.2"/>
<path d="M18 18.5C18 17.6716 17.3284 17 16.5 17H11.5C10.6716 17 10 17.6716 10 18.5C10 19.3284 10.6716 20 11.5 20H16.5C17.3284 20 18 19.3284 18 18.5Z" fill="#0A65FF"/>
<path d="M21 11C21 9.89543 20.1046 9 19 9H9C7.89543 9 7 9.89543 7 11C7 12.1046 7.89543 13 9 13H19C20.1046 13 21 12.1046 21 11Z" fill="#0A65FF"/>
<path d="M4 2.5C4 3.88071 5.11929 5 6.5 5H21.5C22.8807 5 24 3.88071 24 2.5C24 1.11929 22.8807 0 21.5 0H6.5C5.11929 0 4 1.11929 4 2.5Z" fill="#0A65FF"/>
</g>
<defs>
<filter id="filter0_d_1381_2227" x="0" y="0" width="28" height="28" filterUnits="userSpaceOnUse" color-interpolation-filters="sRGB">
<feFlood flood-opacity="0" result="BackgroundImageFix"/>
<feColorMatrix in="SourceAlpha" type="matrix" values="0 0 0 0 0 0 0 0 0 0 0 0 0 0 0 0 0 0 127 0" result="hardAlpha"/>
<feOffset dy="4"/>
<feGaussianBlur stdDeviation="2"/>
<feComposite in2="hardAlpha" operator="out"/>
<feColorMatrix type="matrix" values="0 0 0 0 0 0 0 0 0 0 0 0 0 0 0 0 0 0 0.25 0"/>
<feBlend mode="normal" in2="BackgroundImageFix" result="effect1_dropShadow_1381_2227"/>
<feBlend mode="normal" in="SourceGraphic" in2="effect1_dropShadow_1381_2227" result="shape"/>
</filter>
</defs>
</svg>
